<?xml version="1.0" standalone="no"?>
<!DOCTYPE svg PUBLIC "-//W3C//DTD SVG 20010904//EN"
 "http://www.w3.org/TR/2001/REC-SVG-20010904/DTD/svg10.dtd">
<svg version="1.0" xmlns="http://www.w3.org/2000/svg"
 width="558.000000pt" height="558.000000pt" viewBox="0 0 558.000000 558.000000"
 preserveAspectRatio="xMidYMid meet">
<metadata>
Created by potrace 1.14, written by Peter Selinger 2001-2017
</metadata>
<g transform="translate(0.000000,558.000000) scale(0.100000,-0.100000)"
fill="#000000" stroke="none">
<path d="M840 3767 c-15 -7 -28 -25 -31 -42 -9 -39 -9 -1901 0 -1940 l6 -30
290 0 290 0 5 639 c4 468 8 635 16 625 6 -8 63 -160 127 -339 256 -716 327
-905 343 -917 25 -18 527 -19 541 0 6 6 60 161 120 342 61 182 160 467 219
635 l109 305 5 -638 c4 -552 7 -639 20 -647 24 -15 577 -13 587 3 4 6 10 183
13 392 l5 380 570 0 c314 0 578 4 588 9 32 15 37 51 37 246 0 199 -6 234 -44
244 -11 3 -271 6 -577 6 -418 0 -558 3 -567 12 -13 13 -17 165 -4 185 6 9 155
13 624 15 490 2 620 6 630 16 19 19 19 475 0 494 -11 11 -222 13 -1104 13
-1078 0 -1090 0 -1106 -20 -8 -11 -101 -276 -206 -590 -105 -313 -195 -570
-200 -570 -9 0 -93 229 -277 765 -76 220 -138 383 -150 395 -19 19 -35 20
-437 23 -323 1 -423 -1 -442 -11z"/>
</g>
</svg>
