<svg width="48" height="48" viewBox="0 0 48 48" fill="none" xmlns="http://www.w3.org/2000/svg">
<path fill-rule="evenodd" clip-rule="evenodd" d="M24.3651 26.9488C24.3651 25.1005 23.486 23.7342 21.6697 23.2222C22.9949 22.591 23.686 21.6349 23.686 20.1476C23.686 17.2151 21.4936 16.5 18.9642 16.5H12V31.2235H19.1592C21.8437 31.2235 24.3651 29.9403 24.3651 26.9488ZM15.2466 19.0134H18.2931C19.4643 19.0134 20.5185 19.3415 20.5185 20.6957C20.5185 21.9459 19.6983 22.449 18.5381 22.449H15.2466V19.0134ZM15.2456 28.7231V24.6684H18.7842C20.2134 24.6684 21.1176 25.2625 21.1176 26.7708C21.1176 28.258 20.0384 28.7231 18.7172 28.7231H15.2456ZM30.7992 31.2093C33.3537 31.2093 35.0079 30.0621 35.8041 27.6237H33.2116C32.9326 28.5338 31.7824 29.0149 30.8902 29.0149C29.1689 29.0149 28.2648 28.0097 28.2648 26.3015H35.9791C36.2231 22.8829 34.3188 19.9694 30.7982 19.9694C27.5387 19.9694 25.3263 22.4118 25.3263 25.6113C25.3263 28.9319 27.4226 31.2093 30.7992 31.2093ZM30.7072 22.1817C32.1825 22.1817 32.9246 23.0459 33.0486 24.4591H28.2688C28.3658 23.0579 29.299 22.1817 30.7072 22.1817ZM33.6587 16.9918H27.6697V18.4421H33.6587V16.9918Z" fill="#21243D"/>
</svg>
