<svg width="48" height="48" viewBox="0 0 48 48" fill="none" xmlns="http://www.w3.org/2000/svg">
<path d="M0 24C0 10.7452 10.7452 0 24 0C37.2548 0 48 10.7452 48 24C48 37.2548 37.2548 48 24 48C10.7452 48 0 37.2548 0 24Z" fill="#94CEFD"/>
<path fill-rule="evenodd" clip-rule="evenodd" d="M24 36C30.617 36 36 30.616 36 24C36 17.384 30.616 12 24 12C17.384 12 12 17.383 12 24C12 30.617 17.383 36 24 36ZM24 13.5C29.788 13.5 34.5 18.21 34.5 24C34.5 29.788 29.788 34.5 24 34.5C18.21 34.5 13.5 29.788 13.5 24C13.5 18.21 18.21 13.5 24 13.5ZM29.742 17.071C28.184 15.777 26.183 15 24 15C23.37 15 22.755 15.066 22.161 15.189C23.253 16.737 24.245 18.348 25.118 20.018C26.769 19.248 28.323 18.255 29.742 17.071ZM32.986 23.745C30.931 23.404 28.858 23.442 26.866 23.852C26.526 23.006 26.16 22.173 25.766 21.351C27.569 20.508 29.267 19.43 30.811 18.129C32.119 19.644 32.926 21.6 32.986 23.745ZM23.718 20.585C22.816 18.874 21.795 17.224 20.655 15.649C17.953 16.732 15.905 19.084 15.238 21.971C18.151 22.095 21.034 21.61 23.718 20.585ZM24.39 21.944C24.752 22.695 25.091 23.454 25.404 24.225C22.188 25.191 19.282 27.114 17.121 29.798C15.8 28.232 15 26.21 15 24C15 23.8713 15.0086 23.7442 15.0171 23.6175C15.0206 23.5659 15.0241 23.5145 15.027 23.463L15.1575 23.4701C15.504 23.489 15.8503 23.508 16.195 23.508C19.017 23.508 21.792 22.956 24.39 21.944ZM27.417 25.271C28.132 27.267 28.693 29.318 29.105 31.408C31.133 30.009 32.549 27.799 32.904 25.246C31.065 24.921 29.206 24.935 27.417 25.271ZM24 33C21.781 33 19.755 32.195 18.185 30.864C20.188 28.318 22.919 26.503 25.943 25.62C26.718 27.749 27.318 29.942 27.73 32.183C26.593 32.703 25.332 33 24 33Z" fill="#21243D"/>
</svg>
