<svg width="48" height="48" viewBox="0 0 48 48" fill="none" xmlns="http://www.w3.org/2000/svg">
<path fill-rule="evenodd" clip-rule="evenodd" d="M12 14.882C12 13.291 13.291 12 14.882 12C16.472 12 17.763 13.291 17.764 14.882C17.764 16.473 16.473 17.791 14.882 17.791C13.291 17.791 12 16.473 12 14.882ZM35.994 36V35.999H36V27.197C36 22.891 35.073 19.574 30.039 19.574C27.619 19.574 25.995 20.902 25.332 22.161H25.262V19.976H20.489V35.999H25.459V28.065C25.459 25.976 25.855 23.956 28.442 23.956C30.991 23.956 31.029 26.34 31.029 28.199V36H35.994ZM12.396 19.977H17.372V36H12.396V19.977Z" fill="#21243D"/>
</svg>
